<svg xmlns="http://www.w3.org/2000/svg" xmlns:xlink="http://www.w3.org/1999/xlink" width="1251.05" height="293.87" viewBox="0 0 1251.05 293.87">
  <defs>
    <clipPath id="clip-path">
      <rect id="Rectangle_756" data-name="Rectangle 756" width="339.492" height="183" transform="translate(578 111)" fill="#417bff"/>
    </clipPath>
  </defs>
  <g id="Group_617" data-name="Group 617" transform="translate(-5634.81 956.56)">
    <g id="Group_616" data-name="Group 616" transform="translate(5507.137 -1067.005)" clip-path="url(#clip-path)">
      <path id="Path_15" data-name="Path 15" d="M646.4,126.562c-34,3.6-61.066,26.4-67.333,56.933-2,9.467-1.067,29.467,1.867,38.667,2.533,8.266,12.8,23.866,15.333,23.333q1.4-.2.8,1.2c-2.4,3.6,19.2,17.867,33.333,22,10.934,3.2,33.467,3.333,43.334.267,15.6-4.934,21.733-10,78.533-65.867,60.267-59.2,61.067-59.733,82.133-64.133,8.667-1.734,12.4-1.867,19.867-.667,31.733,4.933,55.467,35.067,52.267,66.667-3.734,36-38.667,61.866-72.934,54.133-16.8-3.733-23.466-8.133-47.066-30.533l-21.6-20.4-4.534,4.133-4.533,4L777.2,237.1c16.534,16.267,23.334,21.867,30.667,25.733,17.2,9.067,31.333,10.934,50.8,6.934,32.933-6.8,56.4-33.334,58.667-66.4,2.4-34.4-22.134-66.8-56.8-74.934-12-2.8-27.2-2.8-36.8,0-17.6,5.2-21.734,8.534-80.934,66.4-61.066,59.734-61.066,59.734-82.133,64.4-8.533,2-11.6,2-19.467.8-37.733-6.266-61.2-43.2-50.133-79.066,6.8-22,26.933-39.067,50.267-42.667,7.333-1.2,11.066-.933,19.466.8,18,3.733,23.2,7.067,47.334,30.667l21.6,21.333,4.8-4.667,4.8-4.8L718,161.228c-23.6-22.533-29.2-26.533-43.333-31.2C662.263,125.895,657.73,125.362,646.4,126.562Z" fill="#417bff"/>
      <g id="Group_615" data-name="Group 615">
        <path id="Path_16" data-name="Path 16" d="M646.4,126.562c-34,3.6-61.066,26.4-67.333,56.933-2,9.467-1.067,29.467,1.867,38.667,2.533,8.266,12.8,23.866,15.333,23.333q1.4-.2.8,1.2c-2.4,3.6,19.2,17.867,33.333,22,10.934,3.2,33.467,3.333,43.334.267,15.6-4.934,21.733-10,78.533-65.867,60.267-59.2,61.067-59.733,82.133-64.133,8.667-1.734,12.4-1.867,19.867-.667,31.733,4.933,55.467,35.067,52.267,66.667-3.734,36-38.667,61.866-72.934,54.133-16.8-3.733-23.466-8.133-47.066-30.533l-21.6-20.4-4.534,4.133-4.533,4L777.2,237.1c16.534,16.267,23.334,21.867,30.667,25.733,17.2,9.067,31.333,10.934,50.8,6.934,32.933-6.8,56.4-33.334,58.667-66.4,2.4-34.4-22.134-66.8-56.8-74.934-12-2.8-27.2-2.8-36.8,0-17.6,5.2-21.734,8.534-80.934,66.4-61.066,59.734-61.066,59.734-82.133,64.4-8.533,2-11.6,2-19.467.8-37.733-6.266-61.2-43.2-50.133-79.066,6.8-22,26.933-39.067,50.267-42.667,7.333-1.2,11.066-.933,19.466.8,18,3.733,23.2,7.067,47.334,30.667l21.6,21.333,4.8-4.667,4.8-4.8L718,161.228c-23.6-22.533-29.2-26.533-43.333-31.2C662.263,125.895,657.73,125.362,646.4,126.562Z" fill="#417bff"/>
      </g>
    </g>
    <path id="Path_8" data-name="Path 8" d="M287.95,292H244.345l-72.93-110.415V292h-43.6V112.99h43.6l72.93,110.925V112.99H287.95Z" transform="translate(5507 -1067)" fill="#417bff"/>
    <path id="Path_9" data-name="Path 9" d="M431.415,147.925v36.21H489.81v33.66H431.415v39.27H497.46V292H387.81V112.99H497.46v34.935Z" transform="translate(5507 -1067)" fill="#417bff"/>
    <path id="Path_10" data-name="Path 10" d="M1043.65,112.99v107.1q0,16.065,7.91,24.735t23.2,8.67q15.3,0,23.46-8.67t8.16-24.735V112.99h43.61V219.835q0,23.97-10.2,40.545a65.138,65.138,0,0,1-27.54,24.99q-17.085,8.415-38.25,8.415t-38-8.16a62.978,62.978,0,0,1-26.26-24.99q-9.69-16.83-9.69-40.8V112.99Z" transform="translate(5507 -1067)" fill="#417bff"/>
    <path id="Path_11" data-name="Path 11" d="M1313.58,293.785q-19.635,0-35.19-6.375a58.248,58.248,0,0,1-24.99-18.87q-9.18-12.5-9.69-30.09h46.41q1.02,9.945,6.89,15.3,5.865,5.1,15.3,5.1,9.69,0,15.3-4.335,5.61-4.59,5.61-12.495a14.436,14.436,0,0,0-4.59-10.965,34.062,34.062,0,0,0-10.97-7.14,165.713,165.713,0,0,0-18.36-6.375,201.207,201.207,0,0,1-28.3-10.71,52.3,52.3,0,0,1-18.87-15.81q-7.905-10.455-7.91-27.285,0-24.99,18.11-39.015,18.105-14.28,47.17-14.28,29.58,0,47.69,14.28,18.105,14.025,19.38,39.27h-47.18q-.51-8.67-6.37-13.515-5.865-5.1-15.05-5.1-7.905,0-12.75,4.335-4.845,4.08-4.84,11.985,0,8.67,8.15,13.515,8.175,4.845,25.51,10.455a227.187,227.187,0,0,1,28.05,11.22,53.3,53.3,0,0,1,18.87,15.555q7.905,10.2,7.9,26.265a50.917,50.917,0,0,1-7.9,27.795q-7.65,12.495-22.44,19.89T1313.58,293.785Z" transform="translate(5507 -1067)" fill="#417bff"/>
    <path id="Intersection_1" data-name="Intersection 1" d="M229.864,163.828c-7.333-3.866-14.134-9.466-30.667-25.733l-21.333-20.8,4.532-4,4.534-4.133,21.6,20.4c23.6,22.4,30.266,26.8,47.066,30.533a57.1,57.1,0,0,0,32.9-2.442V168.72a78.5,78.5,0,0,1-7.837,2.043,87.981,87.981,0,0,1-17.762,2C251.578,172.757,241.411,169.915,229.864,163.828ZM52.4,169.7c-1.248-.365-2.553-.809-3.9-1.317V156.789a65.325,65.325,0,0,0,14.7,4.239c7.867,1.2,10.934,1.2,19.467-.8,21.067-4.666,21.067-4.666,82.133-64.4,59.2-57.866,63.334-61.2,80.934-66.4,9.6-2.8,24.8-2.8,36.8,0q3.04.713,5.971,1.67V42.562a59.694,59.694,0,0,0-12.237-3.267c-7.467-1.2-11.2-1.067-19.867.667-21.066,4.4-21.866,4.933-82.133,64.133-56.8,55.868-62.933,60.933-78.533,65.867-4.776,1.484-12.521,2.218-20.48,2.218C66.766,172.181,58.038,171.346,52.4,169.7ZM130.13,70.762C106,47.162,100.8,43.828,82.8,40.1c-8.4-1.733-12.133-2-19.466-.8A62.141,62.141,0,0,0,48.5,43.536V32.09a85.463,85.463,0,0,1,19.9-4.529c11.334-1.2,15.867-.667,28.267,3.467C110.8,35.695,116.4,39.7,140,62.228l21.334,20.4-4.8,4.8-4.8,4.667Z" transform="translate(6085 -968)" fill="#001340"/>
    <path id="Path_14" data-name="Path 14" d="M354.945,353.059l-12.031,23V390h-4.823V376.061l-12.084-23h5.353l9.116,18.709,9.116-18.709Zm18.708,37.418a15.017,15.017,0,0,1-7.42-1.855,13.492,13.492,0,0,1-5.194-5.247,16.519,16.519,0,0,1-1.855-7.95,15.726,15.726,0,0,1,1.908-7.844,13.278,13.278,0,0,1,5.3-5.247,15.98,15.98,0,0,1,14.946,0,13.022,13.022,0,0,1,5.247,5.194,16.789,16.789,0,0,1-.053,15.847,13.642,13.642,0,0,1-5.353,5.247A15.42,15.42,0,0,1,373.653,390.477Zm0-4.24a10.177,10.177,0,0,0,4.876-1.219,9.1,9.1,0,0,0,3.657-3.657,11.539,11.539,0,0,0,1.431-5.936,11.89,11.89,0,0,0-1.378-5.936,8.841,8.841,0,0,0-3.6-3.6,9.875,9.875,0,0,0-4.823-1.219,9.983,9.983,0,0,0-4.876,1.219,8.626,8.626,0,0,0-3.5,3.6,12.285,12.285,0,0,0-1.325,5.936,12.831,12.831,0,0,0,1.272,5.989,8.986,8.986,0,0,0,3.5,3.657A9.934,9.934,0,0,0,373.653,386.237ZM421.6,360.956V390h-4.823v-4.293a9.54,9.54,0,0,1-3.869,3.5,11.917,11.917,0,0,1-5.406,1.219,13.22,13.22,0,0,1-6.1-1.378,10.544,10.544,0,0,1-4.293-4.24,14.065,14.065,0,0,1-1.537-6.837V360.956h4.77v16.377a9.356,9.356,0,0,0,2.173,6.625,7.812,7.812,0,0,0,5.936,2.279,7.931,7.931,0,0,0,6.1-2.385q2.226-2.385,2.226-6.943V360.956Zm13.92,4.717a9.3,9.3,0,0,1,3.6-3.869,11.366,11.366,0,0,1,5.777-1.378v4.982h-1.272q-8.109,0-8.109,8.8V390H430.7V360.956h4.823Zm49.483,5.3a7.64,7.64,0,0,1,3.657,1.643,9.24,9.24,0,0,1,2.65,3.286,9.028,9.028,0,0,1,1.007,4.187,9.37,9.37,0,0,1-1.431,5.088,9.932,9.932,0,0,1-4.187,3.551A14.937,14.937,0,0,1,480.286,390h-13.78V353.059h13.25a14.717,14.717,0,0,1,6.413,1.272,8.917,8.917,0,0,1,3.975,3.339,8.807,8.807,0,0,1,1.325,4.77,8.261,8.261,0,0,1-1.8,5.459A9.851,9.851,0,0,1,485,370.973Zm-13.674-1.961h8.109a7.822,7.822,0,0,0,5.247-1.59,6.143,6.143,0,0,0,0-8.8,8,8,0,0,0-5.353-1.59h-8Zm8.533,17.013a8.463,8.463,0,0,0,5.618-1.7,5.831,5.831,0,0,0,2.014-4.717,5.911,5.911,0,0,0-2.12-4.823,8.464,8.464,0,0,0-5.671-1.8h-8.374v13.038Zm24.925-20.352a9.307,9.307,0,0,1,3.6-3.869,11.366,11.366,0,0,1,5.777-1.378v4.982H512.9q-8.109,0-8.109,8.8V390h-4.823V360.956h4.823Zm18.394-9.434a3.286,3.286,0,1,1,0-6.572,2.941,2.941,0,0,1,2.226.954,3.327,3.327,0,0,1,0,4.664A2.941,2.941,0,0,1,523.181,356.239Zm2.332,4.717V390H520.69V360.956Zm7.372,14.416a16.15,16.15,0,0,1,1.8-7.791,13.09,13.09,0,0,1,4.929-5.247,13.83,13.83,0,0,1,7.1-1.855,12.965,12.965,0,0,1,6.307,1.59,11.106,11.106,0,0,1,4.452,4.081V350.78h4.876V390h-4.876v-5.459a11.485,11.485,0,0,1-4.24,4.293,12.787,12.787,0,0,1-6.572,1.643,13.137,13.137,0,0,1-11.978-7.261A16.663,16.663,0,0,1,532.885,375.372Zm24.592.053a11.81,11.81,0,0,0-1.325-5.724,9.13,9.13,0,0,0-3.6-3.71,9.458,9.458,0,0,0-4.929-1.325,9.759,9.759,0,0,0-4.929,1.272,9.228,9.228,0,0,0-3.551,3.71,11.8,11.8,0,0,0-1.325,5.724,12.231,12.231,0,0,0,1.325,5.83,9.6,9.6,0,0,0,3.551,3.763,10.186,10.186,0,0,0,9.858,0,9.492,9.492,0,0,0,3.6-3.763A12.124,12.124,0,0,0,557.477,375.425Zm25.958-14.946a12.784,12.784,0,0,1,6.572,1.643,10.858,10.858,0,0,1,4.24,4.134v-5.3h4.876v29.68a14.346,14.346,0,0,1-1.7,7.049,12,12,0,0,1-4.876,4.876,14.74,14.74,0,0,1-7.314,1.749,16.1,16.1,0,0,1-9.54-2.7,10.563,10.563,0,0,1-4.505-7.367h4.77a7.475,7.475,0,0,0,3.286,4.24,10.635,10.635,0,0,0,5.989,1.643,8.747,8.747,0,0,0,6.466-2.491,9.346,9.346,0,0,0,2.544-7v-6.1a11.607,11.607,0,0,1-4.24,4.24,12.465,12.465,0,0,1-6.572,1.7,13.137,13.137,0,0,1-11.978-7.261,16.675,16.675,0,0,1-1.8-7.844,16.162,16.162,0,0,1,1.8-7.791,13.09,13.09,0,0,1,4.929-5.247A13.731,13.731,0,0,1,583.435,360.479Zm10.812,14.946a11.81,11.81,0,0,0-1.325-5.724,9.124,9.124,0,0,0-3.6-3.71,9.459,9.459,0,0,0-4.929-1.325,9.758,9.758,0,0,0-4.929,1.272,9.228,9.228,0,0,0-3.551,3.71,11.81,11.81,0,0,0-1.325,5.724,12.243,12.243,0,0,0,1.325,5.83,9.6,9.6,0,0,0,3.551,3.763,10.186,10.186,0,0,0,9.858,0,9.486,9.486,0,0,0,3.6-3.763A12.124,12.124,0,0,0,594.247,375.425Zm40.48-1.06a28.379,28.379,0,0,1-.159,2.915H611.354a9.044,9.044,0,0,0,9.434,9.116,8.914,8.914,0,0,0,5.194-1.431,7.8,7.8,0,0,0,2.968-3.922h5.194a12.613,12.613,0,0,1-4.664,6.837,14.179,14.179,0,0,1-8.692,2.6,14.826,14.826,0,0,1-7.42-1.855,13.236,13.236,0,0,1-5.088-5.247,18.082,18.082,0,0,1-.053-15.847,12.531,12.531,0,0,1,5.035-5.194,15.041,15.041,0,0,1,7.526-1.855,14.579,14.579,0,0,1,7.314,1.8,12.249,12.249,0,0,1,4.876,4.982A14.3,14.3,0,0,1,634.727,374.365Zm-4.982-1.007a8.756,8.756,0,0,0-1.219-4.717,7.66,7.66,0,0,0-3.339-3.021,9.952,9.952,0,0,0-4.611-1.06,9.035,9.035,0,0,0-6.254,2.332,9.562,9.562,0,0,0-2.915,6.466Zm50.124-20.3v3.922H669.8V390h-4.823V356.981H654.853v-3.922Zm19.557,37.418a15.017,15.017,0,0,1-7.42-1.855,13.492,13.492,0,0,1-5.194-5.247,16.519,16.519,0,0,1-1.855-7.95,15.727,15.727,0,0,1,1.908-7.844,13.279,13.279,0,0,1,5.3-5.247,15.98,15.98,0,0,1,14.946,0,13.022,13.022,0,0,1,5.247,5.194,16.789,16.789,0,0,1-.053,15.847,13.642,13.642,0,0,1-5.353,5.247A15.421,15.421,0,0,1,699.426,390.477Zm0-4.24a10.177,10.177,0,0,0,4.876-1.219,9.1,9.1,0,0,0,3.657-3.657,11.538,11.538,0,0,0,1.431-5.936,11.89,11.89,0,0,0-1.378-5.936,8.841,8.841,0,0,0-3.6-3.6,9.875,9.875,0,0,0-4.823-1.219,9.983,9.983,0,0,0-4.876,1.219,8.626,8.626,0,0,0-3.5,3.6,12.285,12.285,0,0,0-1.325,5.936,12.831,12.831,0,0,0,1.272,5.989,8.985,8.985,0,0,0,3.5,3.657A9.934,9.934,0,0,0,699.426,386.237ZM765.743,390H760.92l-19.4-29.415V390H736.7V353.006h4.823l19.4,29.362V353.006h4.823Zm35.675-15.635a28.38,28.38,0,0,1-.159,2.915H778.045a9.045,9.045,0,0,0,9.434,9.116,8.914,8.914,0,0,0,5.194-1.431,7.8,7.8,0,0,0,2.968-3.922h5.194a12.614,12.614,0,0,1-4.664,6.837,14.179,14.179,0,0,1-8.692,2.6,14.825,14.825,0,0,1-7.42-1.855,13.235,13.235,0,0,1-5.088-5.247,18.083,18.083,0,0,1-.053-15.847,12.531,12.531,0,0,1,5.035-5.194,15.041,15.041,0,0,1,7.526-1.855,14.58,14.58,0,0,1,7.314,1.8,12.249,12.249,0,0,1,4.876,4.982A14.3,14.3,0,0,1,801.418,374.365Zm-4.982-1.007a8.756,8.756,0,0,0-1.219-4.717,7.66,7.66,0,0,0-3.339-3.021,9.951,9.951,0,0,0-4.611-1.06,9.035,9.035,0,0,0-6.254,2.332,9.562,9.562,0,0,0-2.915,6.466Zm50.992-12.4L838.365,390h-4.982l-7-23.055-7,23.055h-4.982l-9.116-29.044h4.929l6.678,24.38,7.208-24.38h4.929l7.049,24.433,6.572-24.433Zm45.523,2.915a10.248,10.248,0,0,1-3.18,7.685q-3.128,3.021-9.593,3.021h-7.1V390h-4.823V353.059h11.925q6.254,0,9.487,3.021A10.1,10.1,0,0,1,892.951,363.871ZM880.178,370.6q4.027,0,5.936-1.749a6.419,6.419,0,0,0,1.908-4.982q0-6.837-7.844-6.837h-7.1V370.6Zm32.388,19.875a15.017,15.017,0,0,1-7.42-1.855,13.492,13.492,0,0,1-5.194-5.247,16.519,16.519,0,0,1-1.855-7.95,15.726,15.726,0,0,1,1.908-7.844,13.278,13.278,0,0,1,5.3-5.247,15.98,15.98,0,0,1,14.946,0,13.021,13.021,0,0,1,5.247,5.194,16.789,16.789,0,0,1-.053,15.847,13.642,13.642,0,0,1-5.353,5.247A15.42,15.42,0,0,1,912.566,390.477Zm0-4.24a10.178,10.178,0,0,0,4.876-1.219,9.1,9.1,0,0,0,3.657-3.657,11.539,11.539,0,0,0,1.431-5.936,11.89,11.89,0,0,0-1.378-5.936,8.84,8.84,0,0,0-3.6-3.6,9.875,9.875,0,0,0-4.823-1.219,9.983,9.983,0,0,0-4.876,1.219,8.626,8.626,0,0,0-3.5,3.6,12.285,12.285,0,0,0-1.325,5.936,12.832,12.832,0,0,0,1.272,5.989,8.986,8.986,0,0,0,3.5,3.657A9.934,9.934,0,0,0,912.566,386.237Zm32.471,4.24a15.334,15.334,0,0,1-5.989-1.113,10.393,10.393,0,0,1-4.187-3.18,8.592,8.592,0,0,1-1.7-4.717h4.982a4.912,4.912,0,0,0,2.014,3.551,7.879,7.879,0,0,0,4.823,1.378,6.978,6.978,0,0,0,4.346-1.219,3.725,3.725,0,0,0,1.59-3.074,2.977,2.977,0,0,0-1.7-2.809,22.727,22.727,0,0,0-5.247-1.855,43.142,43.142,0,0,1-5.3-1.7,10.058,10.058,0,0,1-3.5-2.6,6.967,6.967,0,0,1-1.431-4.558,6.864,6.864,0,0,1,1.325-4.081,8.791,8.791,0,0,1,3.763-2.915,13.26,13.26,0,0,1,5.565-1.113,11.886,11.886,0,0,1,7.791,2.438,8.788,8.788,0,0,1,3.18,6.678h-4.823a4.953,4.953,0,0,0-1.855-3.657,6.71,6.71,0,0,0-4.452-1.378,6.906,6.906,0,0,0-4.134,1.113,3.439,3.439,0,0,0-1.537,2.915,3.336,3.336,0,0,0,.9,2.385,7.752,7.752,0,0,0,2.332,1.484q1.431.529,3.922,1.219a38.708,38.708,0,0,1,5.088,1.7,8.445,8.445,0,0,1,3.339,2.438,6.512,6.512,0,0,1,1.484,4.293,7.352,7.352,0,0,1-1.325,4.293,9,9,0,0,1-3.763,3.021A13.454,13.454,0,0,1,945.037,390.477Zm28.644,0a15.337,15.337,0,0,1-5.989-1.113,10.4,10.4,0,0,1-4.187-3.18,8.591,8.591,0,0,1-1.7-4.717h4.982a4.915,4.915,0,0,0,2.014,3.551,7.881,7.881,0,0,0,4.823,1.378,6.978,6.978,0,0,0,4.346-1.219,3.725,3.725,0,0,0,1.59-3.074,2.976,2.976,0,0,0-1.7-2.809,22.727,22.727,0,0,0-5.247-1.855,43.2,43.2,0,0,1-5.3-1.7,10.059,10.059,0,0,1-3.5-2.6,6.967,6.967,0,0,1-1.431-4.558,6.87,6.87,0,0,1,1.325-4.081,8.8,8.8,0,0,1,3.763-2.915,13.26,13.26,0,0,1,5.565-1.113,11.886,11.886,0,0,1,7.791,2.438,8.781,8.781,0,0,1,3.18,6.678h-4.823a4.949,4.949,0,0,0-1.855-3.657,6.707,6.707,0,0,0-4.452-1.378,6.91,6.91,0,0,0-4.134,1.113,3.439,3.439,0,0,0-1.537,2.915,3.336,3.336,0,0,0,.9,2.385,7.752,7.752,0,0,0,2.332,1.484q1.431.529,3.922,1.219a38.6,38.6,0,0,1,5.088,1.7,8.445,8.445,0,0,1,3.339,2.438,6.507,6.507,0,0,1,1.484,4.293,7.352,7.352,0,0,1-1.325,4.293,8.995,8.995,0,0,1-3.763,3.021A13.45,13.45,0,0,1,973.681,390.477Zm20.854-34.238a3.286,3.286,0,1,1,0-6.572,2.941,2.941,0,0,1,2.226.954,3.327,3.327,0,0,1,0,4.664A2.941,2.941,0,0,1,994.535,356.239Zm2.332,4.717V390h-4.823V360.956Zm13.993,5.406a11.4,11.4,0,0,1,4.35-4.24,12.864,12.864,0,0,1,6.52-1.643,13.578,13.578,0,0,1,7.05,1.855,13.119,13.119,0,0,1,4.93,5.247,16.172,16.172,0,0,1,1.8,7.791,16.685,16.685,0,0,1-1.8,7.844,13.268,13.268,0,0,1-4.99,5.353,13.968,13.968,0,0,1-13.62.265,11.284,11.284,0,0,1-4.24-4.187V390h-4.82V350.78h4.82Zm19.72,9.01a11.733,11.733,0,0,0-1.33-5.724,9.09,9.09,0,0,0-3.6-3.71,9.757,9.757,0,0,0-4.93-1.272,9.639,9.639,0,0,0-4.93,1.325,9.525,9.525,0,0,0-3.6,3.763,11.732,11.732,0,0,0-1.33,5.671,12.161,12.161,0,0,0,1.33,5.777,9.4,9.4,0,0,0,8.53,5.035,9.757,9.757,0,0,0,4.93-1.272,9.449,9.449,0,0,0,3.6-3.763A12.162,12.162,0,0,0,1030.58,375.372Zm14.72-19.133a3.286,3.286,0,1,1,0-6.572,2.937,2.937,0,0,1,2.23.954,3.337,3.337,0,0,1,0,4.664A2.937,2.937,0,0,1,1045.3,356.239Zm2.33,4.717V390h-4.82V360.956Zm14-10.176V390h-4.82V350.78Zm11.67,5.459a3.286,3.286,0,1,1,0-6.572,2.931,2.931,0,0,1,2.22.954,3.313,3.313,0,0,1,0,4.664A2.931,2.931,0,0,1,1073.3,356.239Zm2.33,4.717V390h-4.83V360.956Zm15.05,3.975V382.05a4.176,4.176,0,0,0,.91,3.021,4.525,4.525,0,0,0,3.12.848h3.55V390h-4.34q-4.035,0-6.04-1.855-2.025-1.855-2.02-6.1V364.931h-3.76v-3.975h3.76v-7.314h4.82v7.314h7.58v3.975Zm16.87-8.692a3.286,3.286,0,1,1,0-6.572,2.937,2.937,0,0,1,2.23.954,3.337,3.337,0,0,1,0,4.664A2.937,2.937,0,0,1,1107.55,356.239Zm2.33,4.717V390h-4.82V360.956Zm35.68,13.409a27.311,27.311,0,0,1-.16,2.915h-23.21a9.037,9.037,0,0,0,9.43,9.116,8.9,8.9,0,0,0,5.19-1.431,7.744,7.744,0,0,0,2.97-3.922h5.2a12.651,12.651,0,0,1-4.67,6.837,14.175,14.175,0,0,1-8.69,2.6,14.813,14.813,0,0,1-7.42-1.855,13.227,13.227,0,0,1-5.09-5.247,18.114,18.114,0,0,1-.05-15.847,12.537,12.537,0,0,1,5.03-5.194,15.044,15.044,0,0,1,7.53-1.855,14.554,14.554,0,0,1,7.31,1.8,12.259,12.259,0,0,1,4.88,4.982A14.258,14.258,0,0,1,1145.56,374.365Zm-4.98-1.007a8.782,8.782,0,0,0-1.22-4.717,7.728,7.728,0,0,0-3.34-3.021,9.971,9.971,0,0,0-4.61-1.06,9.042,9.042,0,0,0-6.26,2.332,9.593,9.593,0,0,0-2.91,6.466Zm22.58,17.119a15.339,15.339,0,0,1-5.99-1.113,10.424,10.424,0,0,1-4.19-3.18,8.577,8.577,0,0,1-1.69-4.717h4.98a4.91,4.91,0,0,0,2.01,3.551,7.907,7.907,0,0,0,4.83,1.378,6.973,6.973,0,0,0,4.34-1.219,3.725,3.725,0,0,0,1.59-3.074,2.972,2.972,0,0,0-1.69-2.809,22.691,22.691,0,0,0-5.25-1.855,43.6,43.6,0,0,1-5.3-1.7,10.1,10.1,0,0,1-3.5-2.6,6.989,6.989,0,0,1-1.43-4.558,6.829,6.829,0,0,1,1.33-4.081,8.739,8.739,0,0,1,3.76-2.915,13.237,13.237,0,0,1,5.56-1.113,11.9,11.9,0,0,1,7.8,2.438,8.84,8.84,0,0,1,3.18,6.678h-4.83a4.928,4.928,0,0,0-1.85-3.657,6.716,6.716,0,0,0-4.45-1.378,6.921,6.921,0,0,0-4.14,1.113,3.454,3.454,0,0,0-1.54,2.915,3.305,3.305,0,0,0,.91,2.385,7.655,7.655,0,0,0,2.33,1.484c.95.353,2.26.76,3.92,1.219a39.046,39.046,0,0,1,5.09,1.7,8.5,8.5,0,0,1,3.34,2.438,6.5,6.5,0,0,1,1.48,4.293,7.37,7.37,0,0,1-1.32,4.293,9.028,9.028,0,0,1-3.77,3.021A13.424,13.424,0,0,1,1163.16,390.477Z" transform="translate(5507 -1067)" fill="#001340"/>
  </g>
</svg>
